<svg t="1634706273135" class="icon" viewBox="0 0 1024 1024" version="1.1" xmlns="http://www.w3.org/2000/svg" p-id="5514" width="70" height="70"><path d="M28.432 123.586v776.826h967.138V123.586H28.432z m679.56 482.396c-31.39 47.73-166.508 161.226-195.78 161.226-28.68 0-165.012-113.908-196.194-161.226-15.604-23.682-26.68-49.83-24.848-84.188 3.256-60.816 52.986-111.048 113.886-111.048 62.61 0 106.956 66.81 106.956 66.81s47.01-66.81 106.928-66.81c60.904 0 110.638 50.232 113.892 111.048 1.84 34.358-9.202 60.396-24.84 84.188z" fill="#FECC85" p-id="5515"></path><path d="M618.938 410.746c-59.918 0-106.928 66.81-106.928 66.81s-44.346-66.81-106.956-66.81c-60.9 0-110.63 50.232-113.886 111.048-1.834 34.358 9.244 60.506 24.848 84.188 31.184 47.314 167.514 161.226 196.194 161.226 29.272 0 164.39-113.494 195.78-161.226 15.638-23.79 26.684-49.83 24.842-84.188-3.254-60.818-52.988-111.048-113.894-111.048" fill="#FF5E8A" p-id="5516"></path><path d="M995.568 95.154H28.432C12.73 95.154 0 107.884 0 123.586v776.826c0 15.704 12.73 28.432 28.432 28.432h967.136c15.704 0 28.432-12.73 28.432-28.432V123.586c0-15.702-12.73-28.432-28.432-28.432zM56.864 342.488l207.078 165.724a149.816 149.816 0 0 0-0.69 5.882 136.604 136.604 0 0 0-0.478 6.184c-2.502 46.916 15.638 80.31 29.498 101.35 0.68 1.032 1.404 2.086 2.152 3.154 0.208 0.296 0.43 0.6 0.642 0.898a160.646 160.646 0 0 0 2.464 3.366 195.692 195.692 0 0 0 2.59 3.378c0.89 1.138 1.806 2.286 2.756 3.448L56.864 832.75V342.488z m262.696 180.826c0.086-1.584 0.218-3.158 0.386-4.722 0.034-0.31 0.08-0.614 0.116-0.922 0.154-1.3 0.326-2.594 0.538-3.876 0.036-0.23 0.082-0.46 0.122-0.69 0.242-1.398 0.506-2.79 0.814-4.166 0.022-0.1 0.046-0.196 0.066-0.296 0.342-1.516 0.716-3.016 1.132-4.504v-0.002a92.16 92.16 0 0 1 2.038-6.418c0.08-0.218 0.162-0.432 0.248-0.648l0.25-0.66c0.538-1.438 1.128-2.846 1.734-4.242 0.67-1.532 1.376-3.046 2.13-4.53 0.174-0.346 0.346-0.696 0.526-1.04l0.008-0.014c0.656-1.254 1.342-2.49 2.052-3.71 0.106-0.18 0.216-0.352 0.324-0.532 0.614-1.038 1.242-2.064 1.896-3.076 0.174-0.268 0.356-0.524 0.528-0.788 0.606-0.912 1.216-1.82 1.854-2.706 0.216-0.302 0.444-0.598 0.662-0.898 0.614-0.836 1.234-1.666 1.876-2.48 0.25-0.316 0.506-0.626 0.76-0.938 0.634-0.782 1.274-1.558 1.93-2.318 0.272-0.316 0.554-0.622 0.83-0.936 0.656-0.74 1.322-1.468 2.002-2.184 0.296-0.31 0.598-0.616 0.896-0.922a81.026 81.026 0 0 1 3.018-2.942c0.716-0.666 1.442-1.322 2.178-1.964 0.318-0.278 0.64-0.552 0.96-0.828a85.298 85.298 0 0 1 3.256-2.63c0.79-0.608 1.592-1.202 2.402-1.782 0.322-0.23 0.642-0.464 0.97-0.688 0.834-0.58 1.678-1.142 2.53-1.694 0.316-0.204 0.628-0.41 0.946-0.608a83.9 83.9 0 0 1 2.69-1.614c0.296-0.17 0.592-0.346 0.89-0.514 0.946-0.532 1.904-1.044 2.872-1.538 0.27-0.14 0.534-0.282 0.808-0.418a86.48 86.48 0 0 1 3.108-1.47l0.662-0.304a79.726 79.726 0 0 1 3.42-1.41c0.148-0.056 0.29-0.12 0.438-0.176a81.942 81.942 0 0 1 5.094-1.752h0.002c1.558-0.48 3.134-0.904 4.722-1.29a83.46 83.46 0 0 1 3.518-0.776c0.31-0.06 0.622-0.114 0.932-0.17 0.42-0.08 0.838-0.162 1.262-0.234a79.882 79.882 0 0 1 5.508-0.728c0.444-0.042 0.892-0.072 1.34-0.106 0.986-0.076 1.974-0.14 2.966-0.188a78.728 78.728 0 0 1 3.298-0.088c46.3 0 82.954 53.634 83.266 54.102a28.438 28.438 0 0 0 23.304 12.706 28.638 28.638 0 0 0 21.452-9.34c0.78-0.858 1.51-1.768 2.186-2.726 9.994-14.202 46.814-54.738 83.676-54.738 1.106 0 2.204 0.04 3.298 0.088 0.992 0.048 1.978 0.11 2.966 0.188 0.446 0.036 0.892 0.062 1.34 0.106 1.85 0.176 3.688 0.426 5.51 0.728 0.636 0.108 1.27 0.23 1.904 0.35l0.284 0.052c1.182 0.228 2.352 0.498 3.52 0.776h0.006c1.584 0.386 3.154 0.81 4.706 1.288l1.172 0.364 0.012 0.002c1.322 0.43 2.63 0.892 3.924 1.388 0.15 0.056 0.298 0.122 0.446 0.18 1.146 0.444 2.284 0.91 3.41 1.404 0.23 0.102 0.454 0.21 0.686 0.312 1.038 0.47 2.07 0.95 3.088 1.458 0.276 0.136 0.546 0.284 0.818 0.424 0.962 0.494 1.916 1 2.86 1.532 0.304 0.17 0.602 0.35 0.904 0.524 0.898 0.52 1.792 1.054 2.672 1.606 0.322 0.202 0.64 0.41 0.958 0.616a79.036 79.036 0 0 1 3.498 2.382c0.808 0.58 1.604 1.168 2.392 1.778 0.33 0.256 0.66 0.512 0.986 0.774a86.74 86.74 0 0 1 3.244 2.698c0.734 0.64 1.452 1.29 2.164 1.954 0.316 0.296 0.634 0.588 0.946 0.89 0.702 0.674 1.39 1.36 2.07 2.056 0.304 0.31 0.608 0.616 0.908 0.932 0.676 0.71 1.336 1.436 1.988 2.17 0.282 0.316 0.566 0.632 0.844 0.95 0.654 0.756 1.29 1.526 1.922 2.306 0.256 0.316 0.518 0.628 0.768 0.946 0.64 0.81 1.256 1.638 1.868 2.47 0.222 0.302 0.45 0.6 0.668 0.908 0.634 0.888 1.248 1.794 1.85 2.706 0.176 0.264 0.358 0.524 0.532 0.79 0.652 1.004 1.276 2.028 1.888 3.06 0.11 0.184 0.228 0.366 0.336 0.554a95.548 95.548 0 0 1 2.058 3.722c0.168 0.324 0.326 0.646 0.49 0.97 0.768 1.516 1.49 3.06 2.176 4.626v0.002c0.594 1.37 1.172 2.752 1.7 4.162 0.174 0.454 0.352 0.91 0.52 1.368a92.668 92.668 0 0 1 2.022 6.36v0.002c0.416 1.49 0.79 2.994 1.134 4.51l0.068 0.304c0.304 1.376 0.572 2.766 0.814 4.166 0.04 0.234 0.086 0.464 0.122 0.7 0.21 1.282 0.384 2.576 0.538 3.876 0.036 0.31 0.086 0.62 0.12 0.93 0.17 1.564 0.304 3.138 0.386 4.728 0.156 2.94 0.202 5.826 0.128 8.672-0.524 19.916-6.838 37.834-20.334 58.372-0.708 1.074-1.51 2.22-2.368 3.404-0.31 0.43-0.66 0.884-0.992 1.328-0.572 0.764-1.154 1.542-1.782 2.342a178.136 178.136 0 0 1-3.108 3.868c-0.612 0.742-1.234 1.492-1.886 2.26-0.47 0.554-0.964 1.126-1.452 1.694-0.794 0.922-1.586 1.842-2.43 2.798-0.17 0.194-0.358 0.398-0.528 0.592a419.268 419.268 0 0 1-11.816 12.722c-0.73 0.756-1.462 1.516-2.2 2.272l-0.2 0.202c-1.87 1.914-3.802 3.862-5.788 5.838-0.332 0.33-0.68 0.668-1.016 1a647.66 647.66 0 0 1-6.774 6.618 899.878 899.878 0 0 1-6.948 6.622c-1.762 1.66-3.554 3.332-5.374 5.016l-1.786 1.65c-1.846 1.698-3.718 3.406-5.612 5.12l-1.726 1.56c-1.988 1.788-4 3.582-6.034 5.382l-1.532 1.36a1065.124 1065.124 0 0 1-6.628 5.784l-1.124 0.976a1031.966 1031.966 0 0 1-7.852 6.704l-0.034 0.028c-23.284 19.582-45.802 36.62-62.63 47.814-5.042 3.316-9.402 5.996-13.078 8.098-0.16 0.092-0.326 0.19-0.486 0.278-0.706 0.4-1.368 0.764-2.018 1.118-0.342 0.184-0.676 0.366-1.004 0.54a65.564 65.564 0 0 1-2.776 1.412c-0.35 0.17-0.71 0.35-1.038 0.5-0.708 0.326-1.376 0.626-1.97 0.868-10.338-4.128-32.612-19.076-58.622-39.314a985.44 985.44 0 0 1-18.324-14.748l-0.032-0.026a1077.132 1077.132 0 0 1-27.714-23.648l-0.208-0.184a899.166 899.166 0 0 1-26.164-24.02 636.908 636.908 0 0 1-16.602-16.602c-0.386-0.404-0.802-0.764-1.206-1.14-0.696-0.728-1.36-1.436-2.036-2.152-0.78-0.824-1.556-1.646-2.306-2.456-0.686-0.736-1.35-1.464-2.014-2.19-0.754-0.824-1.488-1.638-2.21-2.446-0.582-0.652-1.174-1.308-1.738-1.948a230.65 230.65 0 0 1-3.438-3.984c-0.312-0.372-0.598-0.728-0.904-1.094a208.02 208.02 0 0 1-2.476-3.03c-0.384-0.48-0.748-0.95-1.118-1.422a125.896 125.896 0 0 1-1.996-2.618c-0.308-0.412-0.62-0.828-0.912-1.232a97.646 97.646 0 0 1-2.396-3.438c-0.022-0.036-0.054-0.076-0.076-0.11a174.156 174.156 0 0 1-5.34-8.62c-10.65-18.418-15.282-35.194-15.006-54.022a90.06 90.06 0 0 1 0.138-4.378zM98.854 871.98l243.148-194.592a909.41 909.41 0 0 0 20.502 19.086l0.162 0.148a1100.06 1100.06 0 0 0 13.528 12.002l0.77 0.672a1172.862 1172.862 0 0 0 6.948 5.996 1148.462 1148.462 0 0 0 6.708 5.692 1099 1099 0 0 0 6.3 5.258c1.336 1.106 2.612 2.144 3.918 3.212l0.41 0.336a925.274 925.274 0 0 0 27.156 21.48c0.09 0.068 0.182 0.136 0.272 0.208a618.004 618.004 0 0 0 17.412 12.758c0.432 0.304 0.862 0.608 1.288 0.904a404.448 404.448 0 0 0 4.69 3.24c0.942 0.642 1.888 1.29 2.8 1.902 1.088 0.73 2.144 1.428 3.192 2.118 0.87 0.572 1.722 1.124 2.568 1.668 0.764 0.492 1.526 0.984 2.268 1.456a295.54 295.54 0 0 0 4.106 2.556 209.244 209.244 0 0 0 4.35 2.61c0.268 0.156 0.546 0.326 0.81 0.48a0.062 0.062 0 0 0 0.012 0.008c22.188 13.022 32.28 14.308 38.214 14.436l0.134 0.002c0.268 0.006 0.528 0.012 0.78 0.012l0.904 0.002 0.916-0.002 0.768-0.012 0.162-0.002c6.002-0.128 16.18-1.416 38.318-14.37 0.384-0.222 0.784-0.464 1.174-0.694 0.814-0.478 1.634-0.964 2.48-1.472 0.546-0.33 1.108-0.674 1.67-1.018 0.708-0.436 1.428-0.878 2.158-1.334a248.68 248.68 0 0 0 4.008-2.546c1.64-1.058 3.332-2.164 5.076-3.33l0.76-0.504c0.956-0.64 1.944-1.316 2.932-1.99 0.478-0.326 0.95-0.646 1.432-0.98 1.05-0.722 2.122-1.468 3.208-2.23 0.384-0.268 0.77-0.544 1.158-0.816a606.702 606.702 0 0 0 17.562-12.886l0.11-0.086c9.386-7.136 19.774-15.38 31.366-25.004a1086.326 1086.326 0 0 0 6.196-5.188l0.62-0.52a1104.222 1104.222 0 0 0 12.994-11.172l0.858-0.75a1110 1110 0 0 0 6.202-5.474l0.73-0.652c2.132-1.9 4.264-3.816 6.394-5.746l0.432-0.392a895.412 895.412 0 0 0 20.172-18.87l0.092-0.088 242.992 194.466H98.854v0.012z m868.282-39.23L721.16 635.892l0.102-0.128c0.898-1.112 1.772-2.21 2.618-3.298 0.2-0.254 0.392-0.506 0.586-0.756 0.686-0.884 1.35-1.76 1.998-2.63l0.714-0.958c0.602-0.816 1.182-1.62 1.748-2.42 0.218-0.31 0.446-0.622 0.662-0.93 0.744-1.064 1.464-2.116 2.14-3.148l0.014-0.02 0.006-0.008c13.856-21.08 31.984-54.516 29.472-101.322a133.418 133.418 0 0 0-0.48-6.186 152.218 152.218 0 0 0-0.688-5.862v-0.008l207.082-165.726v490.258z m0-563.098L740.04 451.398a145.564 145.564 0 0 0-30.682-35.874l-0.106-0.088a142.104 142.104 0 0 0-33.312-20.914 142.506 142.506 0 0 0-7.148-2.968l-0.136-0.054a138.926 138.926 0 0 0-31.034-7.902h-0.002c-0.176-0.026-0.356-0.046-0.532-0.066a139.266 139.266 0 0 0-8.28-0.83c-0.432-0.034-0.868-0.072-1.3-0.096h-0.002a148.14 148.14 0 0 0-3.142-0.154c-1.8-0.076-3.608-0.136-5.424-0.136-45.532 0-83.548 28.77-106.538 51.584-22.546-22.93-60.16-51.584-107.346-51.584-1.82 0-3.626 0.056-5.424 0.136-1.05 0.04-2.096 0.09-3.142 0.154h-0.002c-0.458 0.028-0.91 0.066-1.364 0.102a138.856 138.856 0 0 0-39.782 8.794l-0.12 0.046a142.18 142.18 0 0 0-7.328 3.046 141.88 141.88 0 0 0-33.146 20.84l-0.106 0.088a145.544 145.544 0 0 0-30.684 35.876L56.864 269.652V152.02h910.27v117.632z" fill="" p-id="5517"></path><path d="M657.468 276.564H281.694c-15.704 0-28.432-12.73-28.432-28.432s12.73-28.432 28.432-28.432h375.774c15.704 0 28.432 12.73 28.432 28.432s-12.73 28.432-28.432 28.432zM742.304 276.554a27.95 27.95 0 0 1-10.86-2.16 27.938 27.938 0 0 1-9.24-6.17 27.228 27.228 0 0 1-3.526-4.322 28.53 28.53 0 0 1-4.236-10.206 28.26 28.26 0 0 1-0.568-5.572 28.786 28.786 0 0 1 8.33-20.1 27.228 27.228 0 0 1 4.322-3.526 28.142 28.142 0 0 1 4.918-2.616 28.68 28.68 0 0 1 5.316-1.62c3.668-0.74 7.45-0.74 11.118 0 1.792 0.37 3.582 0.91 5.316 1.62a28.78 28.78 0 0 1 4.89 2.616 27.228 27.228 0 0 1 4.322 3.526 30.532 30.532 0 0 1 3.554 4.322c1.024 1.536 1.876 3.212 2.588 4.918 0.71 1.706 1.28 3.498 1.65 5.316 0.37 1.848 0.54 3.696 0.54 5.544 0 1.876-0.17 3.724-0.54 5.572-0.37 1.82-0.938 3.61-1.65 5.316s-1.564 3.356-2.588 4.89a29.032 29.032 0 0 1-3.554 4.322 29.032 29.032 0 0 1-4.322 3.554 28.92 28.92 0 0 1-4.89 2.616c-1.734 0.71-3.526 1.252-5.316 1.62-1.85 0.368-3.726 0.54-5.574 0.54z" fill="" p-id="5518"></path></svg>